#Comment line ignore any data following # character 
#Hierarchical Translation and Rotation (.htr) file 
[Header]	
#Header keywords are followed by a single value 
FileType HTR		#Single word string
DataType HTRS		#Translation followed by rotation and scale data
FileVersion 1		#integer
NumSegments 64		#integer
NumFrames 3		#integer
DataFrameRate 30		#integer, data frame rate in this file
EulerRotationOrder ZYX
CalibrationUnits mm
RotationUnits Degrees
GlobalAxisofGravity Y
BoneLengthAxis Y
ScaleFactor 1.00
[SegmentNames&Hierarchy]
#CHILD	PARENT
Pinger_Root GLOBAL
Pelvis Pinger_Root
L_Hip Pelvis
R_Hip Pelvis
Rear_Leg01 Pelvis
Spine1 Pelvis
L_Leg01 L_Hip
L_Leg02 L_Leg01
L_Leg03 L_Leg02
L_Foot L_Leg03
L_Toe1_01 L_Foot
L_Toe2_01 L_Foot
L_Toe3_01 L_Foot
planeAlignerLeft L_Foot
L_Toe1_02 L_Toe1_01
L_Toe1_03 L_Toe1_02
L_Toe2_02 L_Toe2_01
L_Toe2_03 L_Toe2_02
L_Toe3_02 L_Toe3_01
L_Toe3_03 L_Toe3_02
planeLockWeightLeft planeAlignerLeft
R_Leg01 R_Hip
R_Leg02 R_Leg01
R_Leg03 R_Leg02
R_Foot R_Leg03
planeAlignerRight R_Foot
R_Toe1_01 R_Foot
R_Toe2_01 R_Foot
R_Toe3_01 R_Foot
planeLockWeightRight planeAlignerRight
R_Toe1_02 R_Toe1_01
R_Toe1_03 R_Toe1_02
R_Toe2_02 R_Toe2_01
R_Toe2_03 R_Toe2_02
R_Toe3_02 R_Toe3_01
R_Toe3_03 R_Toe3_02
Rear_Leg02 Rear_Leg01
Rear_Leg03 Rear_Leg02
Rear_Leg04 Rear_Leg03
Rear_Foot Rear_Leg04
planeAlignerCenter Rear_Foot
Rear_Toe1_01 Rear_Foot
Rear_Toe2_01 Rear_Foot
Rear_Toe3_01 Rear_Foot
planeLockWeightCenter planeAlignerCenter
Rear_Toe1_02 Rear_Toe1_01
Rear_Toe1_03 Rear_Toe1_02
Rear_Toe2_02 Rear_Toe2_01
Rear_Toe2_03 Rear_Toe2_02
Rear_Toe3_02 Rear_Toe3_01
Rear_Toe3_03 Rear_Toe3_02
Back_Bone Spine1
Head Spine1
Motor_Bone Back_Bone
Ping_Mechanism Back_Bone
BN_LookIK Head
bottomMouth Head
L_Mouth01 Head
L_mouthFront Head
mouthGun Head
R_Mouth01 Head
R_mouthFront Head
TopMouth Head
weapon_bone Head
[BasePosition]
#SegmentName Tx, Ty, Tz, Rx, Ry, Rz, BoneLength
Pinger_Root 0.000000 0.000000 0.000000 -90.000000 0.000000 0.000000 10.000000 
Pelvis 0.000000 0.000000 0.000000 0.000000 0.000000 0.000000 10.000000 
L_Hip 0.000000 0.000000 0.000000 0.000000 0.000000 0.000000 10.000000 
R_Hip 0.000000 0.000000 0.000000 0.000000 0.000000 0.000000 10.000000 
Rear_Leg01 0.000000 0.000000 0.000000 0.000000 0.000000 0.000000 10.000000 
Spine1 0.000000 0.000000 0.000000 0.000000 0.000000 0.000000 10.000000 
L_Leg01 0.000000 0.000000 0.000000 0.000000 0.000000 0.000000 10.000000 
L_Leg02 0.000000 0.000000 0.000000 0.000000 0.000000 0.000000 10.000000 
L_Leg03 0.000000 0.000000 0.000000 0.000000 0.000000 0.000000 10.000000 
L_Foot 0.000000 0.000000 0.000000 0.000000 0.000000 0.000000 10.000000 
L_Toe1_01 0.000000 0.000000 0.000000 0.000000 0.000000 0.000000 10.000000 
L_Toe2_01 0.000000 0.000000 0.000000 0.000000 0.000000 0.000000 10.000000 
L_Toe3_01 0.000000 0.000000 0.000000 0.000000 0.000000 0.000000 10.000000 
planeAlignerLeft 0.000000 0.000000 0.000000 0.000000 0.000000 0.000000 10.000000 
L_Toe1_02 0.000000 0.000000 0.000000 0.000000 0.000000 0.000000 10.000000 
L_Toe1_03 0.000000 0.000000 0.000000 0.000000 0.000000 0.000000 10.000000 
L_Toe2_02 0.000000 0.000000 0.000000 0.000000 0.000000 0.000000 10.000000 
L_Toe2_03 0.000000 0.000000 0.000000 0.000000 0.000000 0.000000 10.000000 
L_Toe3_02 0.000000 0.000000 0.000000 0.000000 0.000000 0.000000 10.000000 
L_Toe3_03 0.000000 0.000000 0.000000 0.000000 0.000000 0.000000 10.000000 
planeLockWeightLeft 0.000000 0.000000 0.000000 0.000000 0.000000 0.000000 10.000000 
R_Leg01 0.000000 0.000000 0.000000 0.000000 0.000000 0.000000 10.000000 
R_Leg02 0.000000 0.000000 0.000000 0.000000 0.000000 0.000000 10.000000 
R_Leg03 0.000000 0.000000 0.000000 0.000000 0.000000 0.000000 10.000000 
R_Foot 0.000000 0.000000 0.000000 0.000000 0.000000 0.000000 10.000000 
planeAlignerRight 0.000000 0.000000 0.000000 0.000000 0.000000 0.000000 10.000000 
R_Toe1_01 0.000000 0.000000 0.000000 0.000000 0.000000 0.000000 10.000000 
R_Toe2_01 0.000000 0.000000 0.000000 0.000000 0.000000 0.000000 10.000000 
R_Toe3_01 0.000000 0.000000 0.000000 0.000000 0.000000 0.000000 10.000000 
planeLockWeightRight 0.000000 0.000000 0.000000 0.000000 0.000000 0.000000 10.000000 
R_Toe1_02 0.000000 0.000000 0.000000 0.000000 0.000000 0.000000 10.000000 
R_Toe1_03 0.000000 0.000000 0.000000 0.000000 0.000000 0.000000 10.000000 
R_Toe2_02 0.000000 0.000000 0.000000 0.000000 0.000000 0.000000 10.000000 
R_Toe2_03 0.000000 0.000000 0.000000 0.000000 0.000000 0.000000 10.000000 
R_Toe3_02 0.000000 0.000000 0.000000 0.000000 0.000000 0.000000 10.000000 
R_Toe3_03 0.000000 0.000000 0.000000 0.000000 0.000000 0.000000 10.000000 
Rear_Leg02 0.000000 0.000000 0.000000 0.000000 0.000000 0.000000 10.000000 
Rear_Leg03 0.000000 0.000000 0.000000 0.000000 0.000000 0.000000 10.000000 
Rear_Leg04 0.000000 0.000000 0.000000 0.000000 0.000000 0.000000 10.000000 
Rear_Foot 0.000000 0.000000 0.000000 0.000000 0.000000 0.000000 10.000000 
planeAlignerCenter 0.000000 0.000000 0.000000 0.000000 0.000000 0.000000 10.000000 
Rear_Toe1_01 0.000000 0.000000 0.000000 0.000000 0.000000 0.000000 10.000000 
Rear_Toe2_01 0.000000 0.000000 0.000000 0.000000 0.000000 0.000000 10.000000 
Rear_Toe3_01 0.000000 0.000000 0.000000 0.000000 0.000000 0.000000 10.000000 
planeLockWeightCenter 0.000000 0.000000 0.000000 0.000000 0.000000 0.000000 10.000000 
Rear_Toe1_02 0.000000 0.000000 0.000000 0.000000 0.000000 0.000000 10.000000 
Rear_Toe1_03 0.000000 0.000000 0.000000 0.000000 0.000000 0.000000 10.000000 
Rear_Toe2_02 0.000000 0.000000 0.000000 0.000000 0.000000 0.000000 10.000000 
Rear_Toe2_03 0.000000 0.000000 0.000000 0.000000 0.000000 0.000000 10.000000 
Rear_Toe3_02 0.000000 0.000000 0.000000 0.000000 0.000000 0.000000 10.000000 
Rear_Toe3_03 0.000000 0.000000 0.000000 0.000000 0.000000 0.000000 10.000000 
Back_Bone 0.000000 0.000000 0.000000 0.000000 0.000000 0.000000 10.000000 
Head 0.000000 0.000000 0.000000 0.000000 0.000000 0.000000 10.000000 
Motor_Bone 0.000000 0.000000 0.000000 0.000000 0.000000 0.000000 10.000000 
Ping_Mechanism 0.000000 0.000000 0.000000 0.000000 0.000000 0.000000 10.000000 
BN_LookIK 0.000000 0.000000 0.000000 0.000000 0.000000 0.000000 10.000000 
bottomMouth 0.000000 0.000000 0.000000 0.000000 0.000000 0.000000 10.000000 
L_Mouth01 0.000000 0.000000 0.000000 0.000000 0.000000 0.000000 10.000000 
L_mouthFront 0.000000 0.000000 0.000000 0.000000 0.000000 0.000000 10.000000 
mouthGun 0.000000 0.000000 0.000000 0.000000 0.000000 0.000000 10.000000 
R_Mouth01 0.000000 0.000000 0.000000 0.000000 0.000000 0.000000 10.000000 
R_mouthFront 0.000000 0.000000 0.000000 0.000000 0.000000 0.000000 10.000000 
TopMouth 0.000000 0.000000 0.000000 0.000000 0.000000 0.000000 10.000000 
weapon_bone 0.000000 0.000000 0.000000 0.000000 0.000000 0.000000 10.000000 
#Beginning of Data. Separated by tabs
#Fr	Tx	Ty	Tz	Rx	Ry	Rz	SF
[Pinger_Root]
63 0.000000 0.000000 0.000000 -0.000075 -0.000000 -0.000020 0.000000
64 0.000000 0.000000 0.000000 -0.000075 -0.000000 -0.000020 0.000000
65 0.000000 0.000000 0.000000 -0.000075 -0.000000 -0.000020 0.000000
[Pelvis]
63 72.182297 916.536743 4432.056641 -100.500961 -86.105797 92.883148 4526.408203
64 72.187988 916.536743 4432.078125 -100.453957 -86.061096 92.836922 4526.430176
65 72.193680 916.536743 4432.100098 -100.408295 -86.016754 92.792130 4526.451660
[L_Hip]
63 5.766392 125.831482 872.656799 160.158691 -45.484905 122.312202 881.701050
64 5.766392 125.831482 872.656799 160.158691 -45.484905 122.312202 881.701050
65 5.766392 125.831482 872.656799 160.158691 -45.484894 122.312202 881.701050
[R_Hip]
63 5.765438 125.836372 -872.654907 38.087841 49.812687 125.703735 881.699829
64 5.765438 125.836372 -872.654907 38.087841 49.812687 125.703735 881.699829
65 5.765438 125.836372 -872.654907 38.087841 49.812687 125.703735 881.699829
[Rear_Leg01]
63 -192.298416 -925.602966 -0.001907 169.682343 1.968295 -159.606995 945.367432
64 -192.298416 -925.602966 -0.001907 169.682098 1.967067 -159.613815 945.367432
65 -192.298416 -925.602966 -0.001907 169.681885 1.965839 -159.620651 945.367432
[Spine1]
63 290.604584 5.007505 0.000477 7.265744 -0.619986 19.266817 290.647736
64 290.604584 5.007505 0.000477 7.265744 -0.619986 19.266817 290.647736
65 290.604584 5.007505 0.000477 7.265744 -0.619986 19.266817 290.647736
[L_Leg01]
63 761.932007 -0.002384 -0.069261 22.851534 -15.674302 -9.124295 761.932068
64 761.932007 -0.002384 -0.069261 22.847240 -15.676894 -9.115266 761.932068
65 761.932007 -0.002384 -0.069261 22.842947 -15.679486 -9.106237 761.932068
[L_Leg02]
63 1441.140503 -0.000954 -0.000715 2.592000 -0.184973 -128.904999 1441.140503
64 1441.140503 -0.000954 -0.000715 2.597874 -0.185349 -128.961975 1441.140503
65 1441.140503 -0.000954 -0.000715 2.603748 -0.185718 -129.018967 1441.140503
[L_Leg03]
63 1686.963989 -0.000715 -0.000954 -0.029946 0.014716 118.128326 1686.963989
64 1686.963989 -0.000715 -0.000954 -0.029946 0.014717 118.129654 1686.963989
65 1686.963989 -0.000715 -0.000954 -0.029946 0.014717 118.130981 1686.963989
[L_Foot]
63 3041.570068 -30.715107 11.297464 1.940162 13.090025 55.505638 3041.746094
64 3041.570068 -30.715107 11.297464 1.941419 13.089201 55.501839 3041.746094
65 3041.570068 -30.715107 11.297464 1.942676 13.088376 55.498035 3041.746094
[L_Toe1_01]
63 -188.216690 -224.732346 -21.137953 93.722786 -6.875435 -171.973572 293.899567
64 -188.216690 -224.732346 -21.137953 93.722328 -6.873820 -171.973175 293.899567
65 -188.216690 -224.732346 -21.137953 93.721863 -6.872202 -171.972794 293.899567
[L_Toe2_01]
63 200.746536 -219.926590 148.838394 -90.012604 -26.383398 -52.663944 332.896027
64 200.746536 -219.926590 148.838394 -90.014038 -26.374445 -52.665668 332.896027
65 200.746536 -219.926590 148.838394 -90.015457 -26.365484 -52.667385 332.896027
[L_Toe3_01]
63 188.832520 -219.859131 -191.078659 -99.783279 13.829772 -67.658356 347.140900
64 188.832520 -219.859131 -191.078659 -99.783875 13.830926 -67.660179 347.140900
65 188.832520 -219.859131 -191.078659 -99.784485 13.832087 -67.662025 347.140900
[planeAlignerLeft]
63 0.812531 -811.448792 -0.314951 0.000000 -90.000000 -90.001900 811.449280
64 0.812531 -811.448792 -0.314951 0.000000 -90.000000 -90.001900 811.449280
65 0.812531 -811.448792 -0.314951 0.000000 -90.000000 -90.001900 811.449280
[L_Toe1_02]
63 413.761139 0.000477 0.000000 0.001384 -25.972330 0.001384 413.761139
64 413.761139 0.000477 0.000000 0.001384 -25.977409 0.001384 413.761139
65 413.761139 0.000477 0.000000 0.001384 -25.982485 0.001384 413.761139
[L_Toe1_03]
63 464.317322 0.000358 -0.000089 0.003727 53.293713 0.003727 464.317322
64 464.317322 0.000358 -0.000089 0.003729 53.306793 0.003729 464.317322
65 464.317322 0.000358 -0.000089 0.003730 53.319874 0.003730 464.317322
[L_Toe2_02]
63 342.235809 -0.000477 0.000238 0.001188 -72.385521 0.001188 342.235809
64 342.235809 -0.000477 0.000238 0.001188 -72.402016 0.001188 342.235809
65 342.235809 -0.000477 0.000238 0.001188 -72.402000 0.001188 342.235809
[L_Toe2_03]
63 420.210846 -0.000715 0.000000 0.028850 85.337090 0.028850 420.210846
64 420.210846 -0.000715 0.000000 0.028880 85.341919 0.028880 420.210846
65 420.210846 -0.000715 0.000000 0.028910 85.346626 0.028910 420.210846
[L_Toe3_02]
63 329.270111 0.000954 0.000000 0.001178 -80.543274 0.001178 329.270111
64 329.270111 0.000954 0.000000 0.001178 -80.535477 0.001178 329.270111
65 329.270111 0.000954 0.000000 0.001178 -80.527634 0.001178 329.270111
[L_Toe3_03]
63 439.137451 -0.001907 0.000954 -179.996002 78.529106 -179.992493 439.137451
64 439.137451 -0.001907 0.000954 -179.996002 78.538651 -179.992493 439.137451
65 439.137451 -0.001907 0.000954 -179.996002 78.548241 -179.992477 439.137451
[planeLockWeightLeft]
63 -0.000954 0.000238 -0.000305 -0.011826 -0.004376 0.005620 0.001029
64 -0.000954 0.000238 -0.000305 -0.011826 -0.004376 0.005620 0.001029
65 -0.000954 0.000238 -0.000305 -0.011826 -0.004376 0.005620 0.001029
[R_Leg01]
63 761.455627 -0.001907 -0.000358 120.090698 -8.047594 35.702110 761.455688
64 761.455627 -0.001907 -0.000358 120.155914 -8.176377 35.633472 761.455688
65 761.455627 -0.001907 -0.000358 120.155914 -8.176376 35.633469 761.455688
[R_Leg02]
63 1441.140625 0.000000 -0.000238 -1.339062 -0.199201 -118.881943 1441.140625
64 1441.140625 0.000000 -0.000238 -1.339058 -0.199229 -118.884331 1441.140625
65 1441.140625 0.000000 -0.000238 -1.339054 -0.199257 -118.886726 1441.140625
[R_Leg03]
63 1686.963989 0.000954 0.001431 0.075764 -0.043579 131.398178 1686.963989
64 1686.963989 0.000954 0.001431 0.075764 -0.043580 131.399399 1686.963989
65 1686.963989 0.000954 0.001431 0.075763 -0.043581 131.400589 1686.963989
[R_Foot]
63 3041.560059 -30.531288 -11.204481 -0.529619 -24.685450 55.352695 3041.734131
64 3041.560059 -30.531288 -11.204481 -0.530223 -24.685024 55.351727 3041.734131
65 3041.560059 -30.531288 -11.204481 -0.530828 -24.684601 55.350773 3041.734131
[planeAlignerRight]
63 -0.635147 -812.270569 -0.364304 0.000000 -89.960434 -90.005180 812.270874
64 -0.635147 -812.270569 -0.364304 0.000000 -89.960434 -90.005180 812.270874
65 -0.635147 -812.270569 -0.364304 0.000000 -89.960434 -90.005180 812.270874
[R_Toe1_01]
63 -188.383347 -224.864899 21.052242 76.763535 -0.414595 -172.728699 294.101532
64 -188.383347 -224.864899 21.052242 76.763535 -0.414595 -172.728699 294.101532
65 -188.383347 -224.864899 21.052242 76.763535 -0.414595 -172.728699 294.101532
[R_Toe2_01]
63 200.637817 -220.002121 -148.787384 -91.709724 32.875240 -59.118225 332.857574
64 200.637817 -220.002121 -148.787384 -91.713913 32.875061 -59.126217 332.857574
65 200.637817 -220.002121 -148.787384 -91.718102 32.874889 -59.134201 332.857574
[R_Toe3_01]
63 188.606735 -220.092957 191.126343 -73.225998 -8.456855 -73.756157 347.192566
64 188.606735 -220.092957 191.126343 -73.225998 -8.456855 -73.756157 347.192566
65 188.606735 -220.092957 191.126343 -73.225998 -8.456855 -73.756157 347.192566
[planeLockWeightRight]
63 -0.000477 0.000000 0.000000 -0.011823 -0.004379 -0.000027 0.000477
64 -0.000477 0.000000 0.000000 -0.011823 -0.004379 -0.000027 0.000477
65 -0.000477 0.000000 0.000000 -0.011823 -0.004379 -0.000027 0.000477
[R_Toe1_02]
63 413.762085 0.000477 -0.000119 0.000006 -25.434675 -0.000005 413.762085
64 413.762085 0.000477 -0.000119 0.000006 -25.434675 -0.000005 413.762085
65 413.762085 0.000477 -0.000119 0.000006 -25.434675 -0.000005 413.762085
[R_Toe1_03]
63 464.317810 0.000000 0.001088 0.006625 69.593369 0.006625 464.317810
64 464.317810 0.000000 0.001088 0.006625 69.593369 0.006625 464.317810
65 464.317810 0.000000 0.001088 0.006625 69.593369 0.006625 464.317810
[R_Toe2_02]
63 342.234741 -0.000954 0.000238 0.001197 -67.215302 0.001197 342.234741
64 342.234741 -0.000954 0.000238 0.001197 -67.215302 0.001197 342.234741
65 342.234741 -0.000954 0.000238 0.001197 -67.215302 0.001197 342.234741
[R_Toe2_03]
63 420.210846 0.000715 -0.000268 0.008231 73.605896 0.008231 420.210846
64 420.210846 0.000715 -0.000268 0.008231 73.605896 0.008231 420.210846
65 420.210846 0.000715 -0.000268 0.008231 73.605881 0.008231 420.210846
[R_Toe3_02]
63 329.270355 -0.000477 -0.000954 0.001184 -74.556877 0.001184 329.270355
64 329.270355 -0.000477 -0.000954 0.001184 -74.552086 0.001184 329.270355
65 329.270355 -0.000477 -0.000954 0.001184 -74.547325 0.001184 329.270355
[R_Toe3_03]
63 439.137939 0.000238 0.001431 -0.011587 83.300308 -0.008085 439.137939
64 439.137939 0.000238 0.001431 -0.011587 83.300278 -0.008085 439.137939
65 439.137939 0.000238 0.001431 -0.011587 83.300278 -0.008085 439.137939
[Rear_Leg02]
63 1162.777710 -0.029802 0.005960 0.635469 -2.916359 -123.720695 1162.777710
64 1162.777710 -0.029802 0.005960 0.635397 -2.916374 -123.717880 1162.777710
65 1162.777710 -0.029802 0.005960 0.635326 -2.916390 -123.715065 1162.777710
[Rear_Leg03]
63 607.192505 -0.013351 -0.073195 0.007665 -0.002877 64.538803 607.192505
64 607.192505 -0.013351 -0.073195 0.007069 -0.002498 64.500351 607.192505
65 607.192505 -0.013351 -0.073195 0.006472 -0.002119 64.461899 607.192505
[Rear_Leg04]
63 995.874512 -0.020504 -0.011921 -0.040574 -0.015009 58.672863 995.874573
64 995.874512 -0.020504 -0.011921 -0.040572 -0.015015 58.654427 995.874573
65 995.874512 -0.020504 -0.011921 -0.040569 -0.015022 58.635994 995.874573
[Rear_Foot]
63 3096.176270 -0.067472 -0.041425 -143.643784 85.774551 49.191193 3096.176270
64 3096.176270 -0.067472 -0.041425 -143.676712 85.769547 49.141815 3096.176270
65 3096.176270 -0.067472 -0.041425 -143.709549 85.764641 49.092648 3096.176270
[planeAlignerCenter]
63 0.350077 0.966311 -838.790894 0.000009 0.000003 -179.999985 838.791565
64 0.350077 0.966311 -838.790894 0.000009 0.000003 -179.999985 838.791565
65 0.350077 0.966311 -838.790894 0.000009 0.000003 -179.999985 838.791565
[Rear_Toe1_01]
63 0.653352 83.966492 -371.173737 0.288091 41.914127 90.413170 380.553192
64 0.653352 83.966492 -371.173737 0.288091 41.914127 90.413170 380.553192
65 0.653352 83.966492 -371.173737 0.288091 41.914127 90.413170 380.553192
[Rear_Toe2_01]
63 178.200760 -294.826019 -362.060547 -7.196267 34.406261 -66.271294 499.765686
64 178.200760 -294.826019 -362.060547 -7.196267 34.406261 -66.271294 499.765686
65 178.200760 -294.826019 -362.060547 -7.196267 34.406261 -66.271294 499.765686
[Rear_Toe3_01]
63 -153.359680 -308.780914 -362.060852 3.289418 33.518005 -112.540970 499.952881
64 -153.359680 -308.780914 -362.060852 3.289418 33.518005 -112.540970 499.952881
65 -153.359680 -308.780914 -362.060852 3.289418 33.518005 -112.540970 499.952881
[planeLockWeightCenter]
63 -0.000062 0.000238 0.000000 -0.011814 -0.004373 -0.000015 0.000246
64 -0.000062 0.000238 0.000000 -0.011814 -0.004373 -0.000015 0.000246
65 -0.000062 0.000238 0.000000 -0.011814 -0.004373 -0.000015 0.000246
[Rear_Toe1_02]
63 379.707825 0.194073 0.000477 -0.000242 -31.676744 0.006934 379.707855
64 379.707825 0.194073 0.000477 -0.000242 -31.676744 0.006934 379.707855
65 379.707825 0.194073 0.000477 -0.000242 -31.676744 0.006934 379.707855
[Rear_Toe1_03]
63 500.129700 0.165701 0.000119 -0.000103 51.902481 0.007295 500.129761
64 500.129700 0.165701 0.000119 -0.000103 51.902481 0.007295 500.129761
65 500.129700 0.165701 0.000119 -0.000103 51.902481 0.007295 500.129761
[Rear_Toe2_02]
63 340.494507 0.000238 -0.000954 0.001192 -69.854523 0.001192 340.494507
64 340.494507 0.000238 -0.000954 0.001192 -69.854523 0.001192 340.494507
65 340.494507 0.000238 -0.000954 0.001192 -69.854523 0.001192 340.494507
[Rear_Toe2_03]
63 433.103577 0.000000 0.000238 0.006696 69.810326 0.006696 433.103546
64 433.103577 0.000000 0.000238 0.006696 69.810326 0.006696 433.103546
65 433.103577 0.000000 0.000238 0.006696 69.810326 0.006696 433.103546
[Rear_Toe3_02]
63 340.494141 -0.000358 -0.000477 0.008288 -67.274704 -0.009460 340.494171
64 340.494141 -0.000358 -0.000477 0.008288 -67.274704 -0.009460 340.494171
65 340.494141 -0.000358 -0.000477 0.008288 -67.274704 -0.009460 340.494171
[Rear_Toe3_03]
63 433.103577 0.001431 -0.000238 -0.000972 65.958961 -0.004547 433.103546
64 433.103577 0.001431 -0.000238 -0.000972 65.958984 -0.004547 433.103546
65 433.103577 0.001431 -0.000238 -0.000972 65.958984 -0.004547 433.103546
[Back_Bone]
63 1312.175781 -701.934692 0.000954 0.000023 -0.000007 -85.606667 1488.125488
64 1312.175781 -701.934692 0.000954 0.000023 -0.000007 -85.606667 1488.125488
65 1312.175781 -701.934692 0.000954 0.000023 -0.000007 -85.606667 1488.125488
[Head]
63 1406.159424 809.709290 0.001431 0.002583 -1.470801 7.769649 1622.625488
64 1406.159424 809.709290 0.001431 0.002339 -1.471404 7.769446 1622.625488
65 1406.159424 809.709290 0.001431 0.002094 -1.472007 7.769245 1622.625488
[Motor_Bone]
63 1158.364380 -417.834747 0.000477 -0.000105 0.000046 -105.985291 1231.419434
64 1158.364380 -417.834747 0.000477 -0.000105 0.000046 -105.985291 1231.419434
65 1158.364380 -417.834747 0.000477 -0.000105 0.000046 -105.985291 1231.419434
[Ping_Mechanism]
63 1215.237793 -433.297150 0.000954 0.000103 -0.000053 82.120995 1290.174072
64 1215.237793 -433.297150 0.000954 0.000103 -0.000053 82.120995 1290.174072
65 1215.237793 -433.297150 0.000954 0.000103 -0.000053 82.120995 1290.174072
[BN_LookIK]
63 193.241119 1380.371704 -0.002861 0.000000 89.965736 -31.038179 1393.832153
64 193.241119 1380.371704 -0.002861 0.000000 89.965736 -31.038179 1393.832153
65 193.241119 1380.371704 -0.002861 0.000000 89.965736 -31.038179 1393.832153
[bottomMouth]
63 -435.092926 615.759399 -0.000954 -0.000022 0.000016 73.527184 753.966492
64 -435.092926 615.759399 -0.000954 -0.000022 0.000016 73.527184 753.966492
65 -435.092926 615.759399 -0.000954 -0.000022 0.000016 73.527184 753.966492
[L_Mouth01]
63 554.440979 7.658243 838.222046 150.204178 23.759130 109.605339 1005.027161
64 554.440979 7.658243 838.222046 150.204178 23.759130 109.605339 1005.027161
65 554.440979 7.658243 838.222046 150.204178 23.759130 109.605339 1005.027161
[L_mouthFront]
63 551.629089 934.514771 339.150421 0.000081 2.804060 79.119301 1136.941284
64 551.629089 934.514771 339.150421 0.000081 2.804060 79.119301 1136.941284
65 551.629089 934.514771 339.150421 0.000081 2.804060 79.119301 1136.941284
[mouthGun]
63 55.332661 1627.420898 0.000000 0.000023 0.000009 -11.038128 1628.361328
64 55.332661 1627.420898 0.000000 0.000023 0.000009 -11.038128 1628.361328
65 55.332661 1627.420898 0.000000 0.000023 0.000009 -11.038128 1628.361328
[R_Mouth01]
63 554.442383 7.659197 -838.223938 29.795891 -23.759109 109.605331 1005.029541
64 554.442383 7.659197 -838.223938 29.795891 -23.759109 109.605331 1005.029541
65 554.442383 7.659197 -838.223938 29.795891 -23.759109 109.605331 1005.029541
[R_mouthFront]
63 551.629089 934.514282 -339.151367 0.000029 -2.803930 79.119133 1136.941162
64 551.629089 934.514282 -339.151367 0.000029 -2.803930 79.119133 1136.941162
65 551.629089 934.514282 -339.151367 0.000029 -2.803930 79.119133 1136.941162
[TopMouth]
63 461.269867 -56.106091 -0.008583 -0.000059 -0.000268 92.025169 464.669525
64 461.269867 -56.106091 -0.008583 -0.000059 -0.000268 92.025169 464.669525
65 461.269867 -56.106091 -0.008583 -0.000059 -0.000268 92.025169 464.669525
[weapon_bone]
63 -987.239868 1448.372803 0.001431 0.000000 89.965736 -31.038221 1752.833740
64 -987.239868 1448.372803 0.001431 0.000000 89.965736 -31.038221 1752.833740
65 -987.239868 1448.372803 0.001431 0.000000 89.965736 -31.038221 1752.833740
